<svg width="55" height="52" viewBox="0 0 55 52" fill="none" xmlns="http://www.w3.org/2000/svg">
<mask id="mask0_103_41" style="mask-type:luminance" maskUnits="userSpaceOnUse" x="0" y="0" width="55" height="52">
<path d="M55 0H0V52H55V0Z" fill="white"/>
</mask>
<g mask="url(#mask0_103_41)">
<path d="M30.3067 8.90586L32.428 6.93051C36.5938 3.05143 43.3758 2.95542 47.5656 6.81215C49.1532 8.27678 50.2083 10.1677 50.5825 12.2193C50.9568 14.2709 50.6313 16.3802 49.6521 18.2507C49.1824 19.1443 49.0241 20.1522 49.1993 21.1335C49.3747 22.1149 49.8747 23.0208 50.6297 23.7247C52.0181 22.4289 53.1185 20.891 53.8683 19.1991C54.6182 17.5071 55.0028 15.6941 55.0001 13.8637C54.9971 12.0334 54.6073 10.2214 53.8522 8.53142C53.0972 6.84141 51.9919 5.30649 50.5997 4.01434C44.741 -1.41031 35.2313 -1.30236 29.389 4.13753L9.16884 22.9655L7.50655 21.4176C3.2701 17.4727 3.24309 11.0245 7.55429 7.14971C9.1501 5.71987 11.1832 4.78648 13.373 4.47838C15.5627 4.17027 17.8012 4.50266 19.7795 5.42963C20.6824 5.86049 21.7085 6.01461 22.7111 5.87001C23.7138 5.72541 24.6417 5.28947 25.3623 4.62445L25.4139 4.5767C25.4299 4.56187 25.4427 4.54421 25.4514 4.52476C25.46 4.50532 25.4645 4.48447 25.4645 4.46342C25.4645 4.44236 25.46 4.42151 25.4514 4.40207C25.4427 4.38264 25.4299 4.36499 25.4139 4.35013C22.6309 1.82376 18.9015 0.404705 15.0148 0.393232C11.1281 0.381761 7.38913 1.77877 4.58896 4.28866C-1.4429 9.71079 -1.42134 18.7273 4.50713 24.2477L24.7213 43.0705L22.5741 45.07C18.4082 48.9491 11.626 49.0451 7.43645 45.1884C5.84888 43.7238 4.79387 41.8328 4.4196 39.7813C4.04535 37.7297 4.37061 35.6205 5.34973 33.7498C5.81947 32.8562 5.97779 31.8483 5.80259 30.8671C5.62736 29.8857 5.12734 28.9797 4.37238 28.2758C2.98404 29.5718 1.88349 31.1095 1.13361 32.8014C0.383714 34.4935 -0.000818271 36.3063 0.00196816 38.1369C0.0047546 39.9672 0.394805 41.7792 1.14985 43.4691C1.90489 45.1592 3.01012 46.6941 4.40238 47.9862C10.2608 53.4111 19.7708 53.3034 25.613 47.8633L45.8594 29.0102L47.528 30.5639C51.6938 34.4429 51.7969 40.7581 47.6551 44.6593C46.0823 46.1378 44.0515 47.12 41.8483 47.4688C39.6451 47.8173 37.38 47.5143 35.371 46.6024C34.4111 46.1648 33.3282 46.0172 32.2739 46.1808C31.2196 46.3441 30.2464 46.8102 29.4905 47.5137C30.8822 48.8066 32.5336 49.8315 34.3505 50.5297C36.1678 51.228 38.1145 51.5861 40.0804 51.5836C42.046 51.5808 43.992 51.2176 45.8068 50.5145C47.6218 49.8114 49.2702 48.7822 50.6578 47.4858C56.4837 42.0307 56.3678 33.1752 50.5258 27.7353L30.3067 8.90586ZM27.7399 40.2585L12.1882 25.7773L27.287 11.7179L42.8387 26.1991L27.7399 40.2585Z" fill="#18CDCA"/>
</g>
</svg>
