<svg width="167" height="45" viewBox="0 0 167 45" fill="none" xmlns="http://www.w3.org/2000/svg">
<g filter="url(#filter0_d_5_5)">
<path d="M42.32 10.68H55.792L55.28 13.112H48.752L47.408 19.288H52.88L52.368 21.688H46.896L45.424 28.536H51.952L51.472 31H38L42.32 10.68ZM63.8218 20.856L67.1818 17.24H70.8618L65.0698 23.192L69.1978 31H62.4138L60.1738 26.776L55.9498 31H52.2697L58.9578 24.472L55.1497 17.24H61.9018L63.8218 20.856ZM72.429 18.424C73.517 17.8907 74.6263 17.5067 75.757 17.272C76.909 17.016 78.189 16.888 79.597 16.888C80.9623 16.888 82.093 16.9947 82.989 17.208C83.885 17.4213 84.5997 17.7307 85.133 18.136C85.6663 18.5413 86.0397 19.0213 86.253 19.576C86.4663 20.1307 86.573 20.76 86.573 21.464C86.573 21.8693 86.541 22.3067 86.477 22.776C86.4343 23.2453 86.381 23.64 86.317 23.96L84.813 31H79.661L79.085 28.952H78.893C78.2103 29.6987 77.4103 30.2747 76.493 30.68C75.597 31.064 74.701 31.256 73.805 31.256C73.293 31.256 72.7917 31.1813 72.301 31.032C71.8103 30.8827 71.373 30.6587 70.989 30.36C70.605 30.04 70.2957 29.6453 70.061 29.176C69.8263 28.6853 69.709 28.0987 69.709 27.416C69.709 26.3067 70.0077 25.432 70.605 24.792C71.2237 24.1307 72.0237 23.64 73.005 23.32C74.0077 22.9787 75.1277 22.7653 76.365 22.68C77.6237 22.5947 78.8823 22.552 80.141 22.552C80.1837 22.3387 80.237 22.04 80.301 21.656C80.365 21.2507 80.397 20.8987 80.397 20.6C80.397 20.216 80.2903 19.864 80.077 19.544C79.885 19.2027 79.469 19.032 78.829 19.032C78.0823 19.032 77.5277 19.256 77.165 19.704C76.8237 20.1307 76.5997 20.6533 76.493 21.272H71.821L72.429 18.424ZM79.789 24.056H79.213C78.5943 24.056 78.061 24.1413 77.613 24.312C77.1863 24.4613 76.8343 24.664 76.557 24.92C76.301 25.176 76.109 25.464 75.981 25.784C75.853 26.104 75.789 26.424 75.789 26.744C75.789 27.256 75.917 27.64 76.173 27.896C76.4503 28.152 76.7703 28.28 77.133 28.28C77.581 28.28 78.0183 28.12 78.445 27.8C78.893 27.48 79.1703 27.0533 79.277 26.52L79.789 24.056ZM96.3573 19.288C96.8053 18.8613 97.3066 18.4667 97.8613 18.104C98.3519 17.8053 98.9386 17.528 99.6213 17.272C100.304 17.016 101.072 16.888 101.925 16.888C102.949 16.888 103.707 17.1227 104.197 17.592C104.709 18.0613 104.997 18.6373 105.061 19.32H105.253C105.744 18.872 106.277 18.4667 106.853 18.104C107.344 17.8053 107.92 17.528 108.581 17.272C109.243 17.016 109.947 16.888 110.693 16.888C111.803 16.888 112.699 17.1973 113.381 17.816C114.085 18.4133 114.437 19.192 114.437 20.152C114.437 20.6427 114.352 21.2933 114.181 22.104C114.011 22.9147 113.819 23.8 113.605 24.76L112.261 31H105.957L107.685 22.648C107.749 22.328 107.813 22.0187 107.877 21.72C107.941 21.4213 107.973 21.176 107.973 20.984C107.973 20.6853 107.888 20.44 107.717 20.248C107.547 20.0347 107.301 19.928 106.981 19.928C106.576 19.928 106.192 20.0773 105.829 20.376C105.488 20.6533 105.221 20.888 105.029 21.08L102.949 31H96.9653L98.7253 22.648C98.7679 22.3707 98.8213 22.0933 98.8853 21.816C98.9493 21.5173 98.9813 21.2507 98.9813 21.016C98.9813 20.696 98.8959 20.44 98.7253 20.248C98.5759 20.0347 98.3413 19.928 98.0213 19.928C97.6373 19.928 97.2639 20.0667 96.9013 20.344C96.5599 20.6213 96.2933 20.856 96.1013 21.048L93.9893 31H87.4612L90.3733 17.24H95.5893L96.1653 19.288H96.3573ZM121.52 31H115.024L117.936 17.24H124.496L121.52 31ZM125.328 13.048C125.328 13.5387 125.221 13.9653 125.008 14.328C124.816 14.6907 124.549 15 124.208 15.256C123.888 15.512 123.514 15.704 123.088 15.832C122.661 15.96 122.224 16.024 121.776 16.024C120.922 16.024 120.208 15.8213 119.632 15.416C119.056 15.0107 118.768 14.3707 118.768 13.496C118.768 13.0267 118.864 12.6107 119.056 12.248C119.248 11.864 119.504 11.5547 119.824 11.32C120.165 11.064 120.549 10.872 120.976 10.744C121.424 10.616 121.882 10.552 122.352 10.552C123.184 10.552 123.888 10.7547 124.464 11.16C125.04 11.5653 125.328 12.1947 125.328 13.048ZM126.223 17.24H128.687L128.975 15.928C129.252 14.648 129.657 13.5707 130.191 12.696C130.724 11.8 131.353 11.0747 132.079 10.52C132.825 9.96533 133.668 9.57067 134.607 9.336C135.545 9.08 136.548 8.952 137.615 8.952C138.276 8.952 138.98 8.99467 139.727 9.08C140.473 9.16533 141.252 9.304 142.063 9.496L141.551 12.056C141.081 11.992 140.58 11.9493 140.047 11.928C139.513 11.8853 139.087 11.864 138.767 11.864C138.34 11.864 137.967 11.896 137.647 11.96C137.348 12.024 137.081 12.152 136.847 12.344C136.612 12.5147 136.409 12.76 136.239 13.08C136.068 13.4 135.929 13.8267 135.823 14.36L135.215 17.24H138.575L138.159 19.384H134.767L132.303 31H125.775L128.239 19.384H125.743L126.223 17.24ZM145.688 17.24L146.648 26.648L151.704 17.24H155.096L147.384 31C146.616 32.344 145.838 33.3787 145.048 34.104C144.259 34.8293 143.395 35.3627 142.456 35.704C141.539 36.0453 140.515 36.2373 139.384 36.28C138.275 36.344 137.006 36.376 135.576 36.376L136.056 34.168C136.76 34.168 137.411 34.1573 138.008 34.136C138.627 34.1147 139.118 34.0507 139.48 33.944C139.971 33.816 140.323 33.5813 140.536 33.24C140.75 32.92 140.856 32.44 140.856 31.8C140.856 31.3733 140.814 30.8827 140.728 30.328C140.664 29.7733 140.59 29.1867 140.504 28.568L138.936 17.24H145.688Z" fill="white"/>
</g>
<mask id="mask0_5_5" style="mask-type:luminance" maskUnits="userSpaceOnUse" x="0" y="5" width="31" height="28">
<path d="M31 5H0V33H31V5Z" fill="white"/>
</mask>
<g mask="url(#mask0_5_5)">
<path d="M17.0818 9.79552L18.2775 8.73187C20.6255 6.64314 24.4481 6.59144 26.8096 8.66813C27.7044 9.45678 28.2991 10.475 28.5101 11.5797C28.721 12.6844 28.5376 13.8201 27.9856 14.8274C27.7209 15.3085 27.6317 15.8512 27.7304 16.3797C27.8293 16.9081 28.1111 17.3959 28.5366 17.7749C29.3192 17.0771 29.9394 16.2491 30.3621 15.338C30.7847 14.427 31.0015 13.4507 31 12.4651C30.9983 11.4796 30.7786 10.5039 30.353 9.5939C29.9274 8.68389 29.3045 7.8574 28.5197 7.16163C25.2176 4.24066 19.8576 4.29878 16.5646 7.22796L5.16781 17.3661L4.23088 16.5326C1.84306 14.4085 1.82784 10.9363 4.25779 8.8499C5.15724 8.07999 6.30317 7.57739 7.53741 7.41149C8.77164 7.24559 10.0333 7.42456 11.1483 7.9237C11.6573 8.1557 12.2356 8.23869 12.8007 8.16083C13.3658 8.08297 13.8889 7.84823 14.2951 7.49014L14.3241 7.46443C14.3332 7.45644 14.3403 7.44694 14.3452 7.43646C14.3501 7.426 14.3526 7.41477 14.3526 7.40343C14.3526 7.3921 14.3501 7.38087 14.3452 7.3704C14.3403 7.35994 14.3332 7.35044 14.3241 7.34243C12.7555 5.98208 10.6535 5.21797 8.4628 5.2118C6.27214 5.20562 4.16469 5.95786 2.58642 7.30934C-0.813356 10.2289 -0.801207 15.084 2.5403 18.0565L13.9338 28.1919L12.7235 29.2685C10.3755 31.3573 6.55274 31.409 4.19137 29.3323C3.29655 28.5437 2.70191 27.5254 2.49096 26.4207C2.28002 25.316 2.46335 24.1803 3.01522 23.173C3.27998 22.6919 3.36921 22.1492 3.27046 21.6208C3.1717 21.0924 2.88987 20.6045 2.46435 20.2255C1.68183 20.9233 1.06152 21.7513 0.638855 22.6623C0.216189 23.5735 -0.00054735 24.5496 0.00102318 25.5353C0.00259372 26.5208 0.222441 27.4966 0.648009 28.4065C1.07358 29.3165 1.69653 30.143 2.48126 30.8388C5.78325 33.7599 11.1434 33.7019 14.4363 30.7726L25.8479 20.6209L26.7884 21.4575C29.1364 23.5463 29.1945 26.9467 26.8601 29.0474C25.9736 29.8435 24.8289 30.3724 23.5871 30.5602C22.3453 30.7478 21.0686 30.5847 19.9363 30.0937C19.3953 29.858 18.7849 29.7785 18.1907 29.8666C17.5964 29.9546 17.0479 30.2055 16.6218 30.5844C17.4062 31.2805 18.337 31.8324 19.3611 32.2084C20.3854 32.5844 21.4827 32.7772 22.5907 32.7758C23.6986 32.7743 24.7954 32.5787 25.8183 32.2002C26.8413 31.8216 27.7704 31.2674 28.5525 30.5693C31.8362 27.632 31.7708 22.8636 28.4781 19.9345L17.0818 9.79552ZM15.6351 26.6777L6.86961 18.8801L15.3799 11.3097L24.1454 19.1073L15.6351 26.6777Z" fill="#18CDCA"/>
</g>
<defs>
<filter id="filter0_d_5_5" x="34" y="8.952" width="125.096" height="35.424" filterUnits="userSpaceOnUse" color-interpolation-filters="sRGB">
<feFlood flood-opacity="0" result="BackgroundImageFix"/>
<feColorMatrix in="SourceAlpha" type="matrix" values="0 0 0 0 0 0 0 0 0 0 0 0 0 0 0 0 0 0 127 0" result="hardAlpha"/>
<feOffset dy="4"/>
<feGaussianBlur stdDeviation="2"/>
<feComposite in2="hardAlpha" operator="out"/>
<feColorMatrix type="matrix" values="0 0 0 0 0 0 0 0 0 0 0 0 0 0 0 0 0 0 0.25 0"/>
<feBlend mode="normal" in2="BackgroundImageFix" result="effect1_dropShadow_5_5"/>
<feBlend mode="normal" in="SourceGraphic" in2="effect1_dropShadow_5_5" result="shape"/>
</filter>
</defs>
</svg>
